<?xml version="1.0" encoding="UTF-8" standalone="no"?>
<!-- Created with Inkscape (http://www.inkscape.org/) -->

<svg
   version="1.1"
   id="svg1"
   width="157.5"
   height="145"
   viewBox="0 0 157.5 145"
   xmlns="http://www.w3.org/2000/svg"
   xmlns:svg="http://www.w3.org/2000/svg">
  <defs
     id="defs1" />
  <g
     id="g1">
    <path
       style="fill:white;stroke-width:1.27061"
       d="m 67.397657,142.99703 c -0.426946,-1.11232 0.208823,-10.1967 0.778057,-11.1175 0.574731,-0.9297 7.651615,-0.70188 8.460361,0.27232 1.045191,1.25906 0.231552,1.68841 -3.199521,1.68841 -2.617144,0 -3.071037,0.18238 -3.071037,1.23391 0,0.99755 0.517289,1.27134 2.700394,1.42925 1.889926,0.13672 2.700396,0.48131 2.700396,1.14816 0,0.69903 -0.761573,0.965 -2.859242,0.99847 -2.434264,0.0388 -2.88942,0.25127 -3.06228,1.42924 -0.131662,0.89721 0.147547,1.41152 0.794234,1.46302 0.5485,0.0437 1.283195,0.15086 1.632659,0.23821 0.349463,0.0873 1.49316,0.19454 2.541549,0.2382 1.235474,0.0514 1.906161,0.41466 1.906161,1.03223 0,1.43072 -8.771344,1.38 -9.321731,-0.0539 z m 18.21715,0.18461 c -1.925512,-0.97391 -2.159191,-2.77293 -0.317694,-2.44587 0.698927,0.12412 2.27151,0.26706 3.49463,0.3176 3.311522,0.13688 2.910307,-1.5857 -0.644379,-2.76657 -3.889961,-1.29225 -4.438718,-1.72882 -4.438718,-3.5312 0,-3.40903 4.964311,-5.39417 7.978744,-3.19054 1.66095,1.2142 0.719996,1.95759 -2.477819,1.95759 -3.574049,0 -3.588781,1.60417 -0.02305,2.51051 3.23075,0.82119 4.691304,1.99518 4.678594,3.76066 -0.02512,3.48987 -4.453385,5.30823 -8.250303,3.38782 z m -29.031462,-1.24195 c -0.28272,-0.43651 -0.951066,-1.93722 -1.485211,-3.33491 -1.170477,-3.06276 -2.569167,-3.27892 -3.287362,-0.50806 -0.598882,2.31056 -1.585808,3.17683 -2.536487,2.22642 -0.728705,-0.72854 1.142217,-9.70682 2.373546,-11.39032 0.625108,-0.85467 1.161015,-0.88008 4.032703,-0.19137 4.083089,0.97927 5.747454,2.97418 4.593615,5.50592 -0.407453,0.89402 -1.296682,1.77083 -1.976066,1.94843 -1.163724,0.30425 -1.180078,0.45492 -0.282475,2.60264 0.96152,2.30063 0.836759,3.93491 -0.300393,3.93491 -0.339806,0 -0.849148,-0.35715 -1.13187,-0.79366 z m 1.07443,-9.09786 c 0,-1.09972 -2.35908,-2.38359 -3.544279,-1.9289 -1.476143,0.5663 -1.091871,2.80848 0.52619,3.07026 1.92827,0.31197 3.018089,-0.10026 3.018089,-1.14136 z m 46.629865,7.3633 c -4.04559,-1.63418 -5.50565,-8.15238 -2.49934,-11.15789 2.14655,-2.14599 6.15086,-2.16636 8.27568,-0.0421 3.31029,3.30942 2.5721,9.31094 -1.3466,10.94785 -2.36959,0.98982 -2.57462,1.00149 -4.42974,0.25213 z m 3.24472,-2.32257 c 2.78148,-1.06707 2.07638,-7.211 -0.93731,-8.16728 -3.28639,-1.04277 -5.01493,3.71148 -2.5079,6.8978 1.39608,1.77437 1.77,1.91215 3.44521,1.26948 z m -67.951626,-1.6074 c -0.15778,-0.46576 -0.372374,-1.51044 -0.476875,-2.32151 -0.104497,-0.81106 -0.961802,-1.9404 -1.905111,-2.50966 -1.602715,-0.96718 -1.798942,-0.95916 -2.994424,0.12247 -1.258493,1.1386 -3.232808,1.00648 -3.232808,-0.21636 0,-1.21815 9.1539,-8.36351 10.472486,-8.17463 1.169085,0.16746 1.264389,0.57587 1.08051,4.63021 -0.110914,2.4456 -0.404189,5.42564 -0.651719,6.62233 -0.466849,2.25697 -1.791586,3.32456 -2.292059,1.84715 z m 0.565938,-7.90923 c 0.547407,-2.18045 0.342466,-2.28574 -1.516576,-0.77904 -1.281773,1.03883 -1.393258,1.36188 -0.635387,1.84124 1.402431,0.88704 1.699409,0.74046 2.151963,-1.0622 z m 78.634678,1.42156 c -1.46737,-2.57838 -2.66796,-4.9978 -2.66796,-5.37646 0,-1.23713 4.67105,-3.91038 6.83268,-3.91038 2.64004,0 3.96362,2.24107 2.81374,4.76415 -0.46308,1.01608 -0.49247,1.58805 -0.0816,1.58805 0.35321,0 1.68723,0.43653 2.96452,0.97008 2.11095,0.88179 2.23149,1.06093 1.32415,1.96801 -0.90734,0.9071 -1.2669,0.8791 -3.95034,-0.30759 -4.06912,-1.79949 -5.26122,-1.27079 -3.51255,1.55785 1.32245,2.13922 1.22233,3.43428 -0.26552,3.43428 -0.43403,0 -1.98975,-2.10958 -3.45713,-4.68799 z m 3.71661,-4.1022 c 2.38998,-1.93478 0.27609,-3.53252 -2.62211,-1.98188 -0.99372,0.5317 -1.1061,0.90656 -0.57124,1.90566 0.826,1.54302 1.36555,1.55589 3.19335,0.0763 z m -99.52819,-0.8342 c -0.263422,-0.42611 0.417579,-1.44092 1.631793,-2.43166 1.765283,-1.44037 1.979693,-1.89498 1.40237,-2.97344 -1.417031,-2.64704 -2.450741,-2.99004 -4.536492,-1.50524 -1.925532,1.37073 -3.203666,1.28263 -3.203666,-0.22082 0,-0.73719 7.340549,-6.43471 9.218571,-7.15518 1.702284,-0.65305 1.770613,1.26469 0.09636,2.70443 -2.034199,1.74929 -2.044744,1.97854 -0.194944,4.238 l 1.449638,1.77068 1.723127,-1.35506 c 1.66133,-1.30645 3.591927,-1.31074 3.591927,-0.007 0,0.70977 -9.185518,7.66757 -10.122552,7.66757 -0.332218,0 -0.807476,-0.3291 -1.05613,-0.73132 z m 110.0444,-5.56551 c -2.91047,-5.63372 -3.19755,-7.67801 -1.07823,-7.67801 0.58997,0 3.4901,0.81208 6.44473,1.80463 5.75206,1.93226 7.22786,3.60757 3.15313,3.5794 -2.94145,-0.0203 -5.25895,2.43901 -4.29384,4.55664 0.68076,1.49368 0.28281,3.39895 -0.70992,3.39895 -0.32505,0 -1.90719,-2.54773 -3.51587,-5.66161 z m 4.067,-3.16997 c 0,-0.23001 -0.85778,-0.74188 -1.90617,-1.13751 -2.1568,-0.81387 -2.34793,-0.47244 -0.89584,1.60016 0.80149,1.14399 1.19551,1.28842 1.90617,0.69878 0.49271,-0.40879 0.89584,-0.93145 0.89584,-1.16143 z m -76.172442,-2.01177 c -2.722613,-1.6594 -1.852767,-3.11998 0.984528,-1.65315 1.274676,0.65898 2.175528,0.76347 2.932249,0.3401 1.734569,-0.97045 1.304846,-1.69242 -1.925786,-3.23542 -3.324865,-1.58803 -4.038025,-3.10658 -2.33992,-4.98249 1.294254,-1.42974 4.571067,-1.62088 6.286719,-0.3667 1.532954,1.12062 0.734923,2.57453 -0.9255,1.68613 -0.654743,-0.35032 -1.802053,-0.63695 -2.549577,-0.63695 -2.087523,0 -1.309547,1.98863 1.09628,2.80228 4.555455,1.54062 5.318777,5.28256 1.359101,6.66257 -2.572064,0.89637 -2.40091,0.91783 -4.918094,-0.61637 z m -13.779176,-0.4318 c 3.632328,-9.8648 4.673373,-11.43962 6.35614,-9.61516 0.837361,0.90786 4.172083,8.97934 4.172083,10.09826 0,1.14869 -2.019772,0.64902 -2.341028,-0.57915 -0.215667,-0.82449 -1.024813,-1.29041 -2.550195,-1.46845 -1.853238,-0.21629 -2.348435,-0.0106 -2.903542,1.20769 -0.803525,1.76307 -3.374852,2.09872 -2.733458,0.35681 z m 6.533676,-4.44654 c -0.14147,-0.26203 -0.459651,-1.04009 -0.707065,-1.72905 -0.376904,-1.04951 -0.545755,-1.10102 -1.041323,-0.31762 -0.969104,1.532 -0.695185,2.52309 0.697336,2.52309 0.719551,0 1.192523,-0.2144 1.051052,-0.47642 z m 16.836399,0 c 0.146504,-4.43554 0.376084,-5.55818 1.136664,-5.55818 0.610837,0 1.024577,0.74134 1.152184,2.06446 0.181487,1.88181 0.38875,2.06447 2.342445,2.06447 1.952481,0 2.16107,-0.18337 2.342444,-2.05926 0.131131,-1.35623 0.578717,-2.13116 1.311031,-2.26984 0.993287,-0.18811 1.111928,0.40933 1.111928,5.59955 0,5.19628 -0.11747,5.78619 -1.111928,5.58355 -0.83592,-0.17032 -1.093936,-0.8126 -1.039453,-2.58746 0.07151,-2.32954 0.03988,-2.36087 -2.382702,-2.36087 -2.440779,0 -2.455175,0.0149 -2.455175,2.54087 0,2.13359 -0.207672,2.54089 -1.295511,2.54089 -1.21904,0 -1.284676,-0.32809 -1.111927,-5.55818 z m 11.938245,4.90302 c 0,-0.36033 0.428886,-0.81971 0.95308,-1.0208 1.416755,-0.5435 1.367471,-7.85236 -0.05295,-7.85236 -2.240644,0 -0.293675,-1.60203 2.167338,-1.78335 2.059992,-0.1518 2.651013,0.0253 2.651013,0.79401 0,0.54415 -0.428886,0.98934 -0.95308,0.98934 -0.739362,0 -0.953081,0.83943 -0.953081,3.74338 0,2.74144 0.255093,3.84121 0.953081,4.10898 1.932464,0.74136 0.869498,1.67596 -1.906161,1.67596 -1.572583,0 -2.859243,-0.29482 -2.859243,-0.65516 z m 10.903328,-4.109 0.240641,-4.76416 h -2.130305 c -1.420805,0 -2.042784,-0.26443 -1.867516,-0.79402 0.172249,-0.52044 1.941779,-0.85794 5.136046,-0.97954 4.0475,-0.15409 4.873262,-0.0196 4.873262,0.79402 0,0.66492 -0.612284,0.97954 -1.906161,0.97954 h -1.906161 v 4.76416 c 0,4.42296 -0.09594,4.76416 -1.340228,4.76416 -1.265629,0 -1.326829,-0.26515 -1.099578,-4.76416 z m 7.37525,4.40481 c -0.19769,-0.19764 0.55126,-2.69882 1.66435,-5.55817 1.54348,-3.96498 2.33753,-5.24438 3.34573,-5.39072 1.11012,-0.16114 1.64146,0.6022 3.31626,4.76415 1.09688,2.72581 1.9928,5.31334 1.99092,5.75006 -0.005,1.26805 -1.99645,0.91676 -2.34445,-0.41366 -0.21544,-0.82361 -1.02434,-1.29035 -2.54357,-1.46768 -1.86683,-0.21788 -2.31808,-0.0222 -2.78583,1.20769 -0.52284,1.37483 -1.82903,1.92249 -2.64341,1.10833 z m 6.2518,-5.7272 c -0.21211,-0.55263 -0.39476,-1.33872 -0.40588,-1.74684 -0.0221,-0.8105 -1.88595,1.40113 -1.88595,2.23781 0,0.2826 0.60244,0.51382 1.33875,0.51382 0.95973,0 1.22957,-0.28448 0.95308,-1.00479 z M 130.0919,106.8 c -1.22311,-0.86308 -2.19526,-1.84951 -2.16031,-2.19212 0.16688,-1.63611 0.30944,-1.89318 1.04838,-1.89044 1.13255,0.004 4.92426,3.69515 4.92426,4.7934 0,1.32328 -1.26341,1.0877 -3.81233,-0.71084 z M 1.2289853,92.709782 c 0.1958785,-1.018257 1.5607662,-1.125889 16.2489607,-1.281347 8.819315,-0.09334 16.035118,-0.272159 16.035118,-0.397373 0,-0.125213 -0.701007,-1.812347 -1.557792,-3.749184 -2.861425,-6.468482 -3.767686,-11.050672 -3.794761,-19.186861 -0.02076,-6.237728 0.243035,-8.488206 1.451931,-12.386786 4.339786,-13.995396 14.456394,-25.645742 27.614771,-31.801333 7.411883,-3.467337 13.126107,-4.610882 22.986803,-4.60018 7.816932,0.0085 9.588733,0.217902 14.613904,1.727285 17.80464,5.34788 31.01696,18.424755 35.67518,35.309449 1.7626,6.388902 1.60053,18.565836 -0.32963,24.765882 -0.81441,2.616054 -2.02371,5.820467 -2.68732,7.120917 -0.66361,1.300451 -1.20657,2.513686 -1.20657,2.696079 0,0.182392 6.92989,0.408167 15.39976,0.501721 14.08287,0.155552 15.41802,0.265157 15.61356,1.281731 0.20272,1.053839 -3.85429,1.111636 -78.031964,1.111636 -74.1776735,0 -78.2346735,-0.0578 -78.0319507,-1.111636 z M 136.92231,82.656667 c -0.98931,-0.99847 -0.44329,-2.793974 0.95308,-3.134037 0.7863,-0.191488 3.85998,-0.41132 6.83041,-0.488518 5.09975,-0.132536 5.41169,-0.06395 5.59617,1.230394 0.15159,1.063585 -0.20437,1.448858 -1.58847,1.719299 -3.57692,0.698897 -11.32717,1.141163 -11.79119,0.672862 z M 16.03992,80.682121 c -4.683458,-0.407867 -5.500211,-0.761464 -5.283193,-2.287236 0.182257,-1.281367 0.539986,-1.401666 4.012418,-1.349302 2.096778,0.03162 5.170463,0.263522 6.830411,0.515338 2.65029,0.402051 3.018089,0.646631 3.018089,2.006974 0,1.439589 -0.213409,1.541577 -3.018089,1.442344 -1.659948,-0.05873 -4.161785,-0.206383 -5.559636,-0.328118 z m 123.65443,-20.70982 c -1.77151,-1.771048 -0.7138,-2.817356 4.86484,-4.812363 6.40299,-2.289804 6.86226,-2.351228 7.38559,-0.987803 0.64017,1.667822 0.46068,2.02017 -1.36165,2.672885 -0.96102,0.344216 -3.64505,1.347709 -5.96454,2.229983 -3.09634,1.177784 -4.40513,1.416272 -4.92424,0.897298 z M 14.456573,58.02387 c -3.72525,-1.405131 -5.464878,-2.39448 -5.6192236,-3.195723 -0.4610941,-2.393636 0.9127742,-2.471903 6.6635196,-0.379605 6.528851,2.375397 6.842341,2.593709 6.277835,4.371844 -0.536382,1.689546 -0.810086,1.659771 -7.322131,-0.796516 z M 130.85436,40.971132 c -1.29208,-1.291751 -0.83633,-1.963115 4.13221,-6.086981 4.59784,-3.816187 4.86066,-3.943255 6.00839,-2.904856 0.66012,0.597246 1.12178,1.274148 1.02591,1.504224 -0.30365,0.728718 -9.29376,8.249877 -9.86116,8.249877 -0.29859,0 -0.88599,-0.343019 -1.30535,-0.762264 z M 21.224116,36.954002 c -4.392209,-3.74665 -4.783013,-4.264574 -4.074137,-5.399368 0.431249,-0.690356 1.011912,-1.255195 1.290362,-1.255195 0.84772,0 9.989627,7.863866 9.989627,8.593075 0,0.746217 -1.281199,2.205662 -1.936279,2.205662 -0.226241,0 -2.59755,-1.864878 -5.269573,-4.144174 z M 42.22738,18.730003 c -2.663683,-3.901612 -3.390779,-5.423349 -2.883363,-6.034587 1.394626,-1.67998 2.818856,-0.679349 6.082556,4.273457 1.83468,2.784206 3.335782,5.319825 3.335782,5.634709 0,0.547389 -1.476551,1.34366 -2.491594,1.34366 -0.264824,0 -2.084346,-2.347756 -4.043381,-5.217239 z m 69.79972,4.374925 c -1.07777,-0.787877 -0.9152,-1.198411 2.51548,-6.352197 2.01724,-3.030437 3.85608,-5.509884 4.08629,-5.509884 0.23021,0 0.93707,0.379042 1.5708,0.842315 1.07777,0.787877 0.9152,1.198411 -2.51547,6.352197 -2.01725,3.030436 -3.85608,5.509883 -4.0863,5.509883 -0.23021,0 -0.93707,-0.379042 -1.5708,-0.842314 z M 91.533248,14.658877 c -0.217551,-0.566778 0.0059,-3.636297 0.496482,-6.8211498 0.728327,-4.7279681 1.108471,-5.8320874 2.071446,-6.0164802 2.151985,-0.4120696 2.390129,0.7338667 1.410655,6.7882005 -0.519514,3.2112035 -1.117238,6.1178635 -1.328279,6.4592445 -0.602869,0.975205 -2.214326,0.726028 -2.650304,-0.409815 z M 66.550639,14.577749 C 66.549239,14.315721 66.11122,11.40828 65.577275,8.1167685 64.56525,1.8781206 64.808573,0.83169001 67.175141,1.2450414 c 0.982858,0.1716694 2.439924,6.7894507 2.515942,11.4270486 0.03488,2.127809 -0.130508,2.382075 -1.549422,2.382075 -0.873656,0 -1.589617,-0.214387 -1.591022,-0.476416 z"
       id="path1" />
  </g>
</svg>
